<svg width="34" height="38" viewBox="0 0 34 38" fill="none" xmlns="http://www.w3.org/2000/svg">
<g filter="url(#filter0_d_1_3238)">
<path d="M8.86445 1C8.31217 1 7.86445 1.44772 7.86445 2V19.6C7.86445 20.1523 7.41673 20.6 6.86445 20.6H6C5.44772 20.6 5 21.0477 5 21.6V22.4C5 22.9523 5.44772 23.4 6 23.4H6.86445C7.41673 23.4 7.86445 23.8477 7.86445 24.4V28C7.86445 28.5523 8.31217 29 8.86445 29H9.7289C10.2812 29 10.7289 28.5523 10.7289 28V24.4C10.7289 23.8477 11.1766 23.4 11.7289 23.4H18.3223C18.8745 23.4 19.3223 22.9523 19.3223 22.4V21.6C19.3223 21.0477 18.8745 20.6 18.3223 20.6H11.7289C11.1766 20.6 10.7289 20.1523 10.7289 19.6V17.4C10.7289 16.8477 11.1766 16.4 11.7289 16.4H21.4706C25.8045 16.4 29.3478 12.9364 29.3478 8.7C29.3478 4.4636 25.8045 1 21.4706 1H8.86445ZM10.7289 4.8C10.7289 4.24772 11.1766 3.8 11.7289 3.8H21.4706C24.2548 3.8 26.4834 5.9784 26.4834 8.7C26.4834 11.4216 24.2548 13.6 21.4706 13.6H11.7289C11.1766 13.6 10.7289 13.1523 10.7289 12.6V4.8Z" fill="white" stroke="white" stroke-width="0.3"/>
</g>
<defs>
<filter id="filter0_d_1_3238" x="0.850098" y="0.850006" width="32.6477" height="36.3" filterUnits="userSpaceOnUse" color-interpolation-filters="sRGB">
<feFlood flood-opacity="0" result="BackgroundImageFix"/>
<feColorMatrix in="SourceAlpha" type="matrix" values="0 0 0 0 0 0 0 0 0 0 0 0 0 0 0 0 0 0 127 0" result="hardAlpha"/>
<feOffset dy="4"/>
<feGaussianBlur stdDeviation="2"/>
<feComposite in2="hardAlpha" operator="out"/>
<feColorMatrix type="matrix" values="0 0 0 0 0 0 0 0 0 0 0 0 0 0 0 0 0 0 0.25 0"/>
<feBlend mode="normal" in2="BackgroundImageFix" result="effect1_dropShadow_1_3238"/>
<feBlend mode="normal" in="SourceGraphic" in2="effect1_dropShadow_1_3238" result="shape"/>
</filter>
</defs>
</svg>
