<svg width="26" height="30" viewBox="0 0 26 30" fill="none" xmlns="http://www.w3.org/2000/svg">
<path d="M4.86445 1C4.31217 1 3.86445 1.44772 3.86445 2V19.6C3.86445 20.1523 3.41673 20.6 2.86445 20.6H2C1.44772 20.6 1 21.0477 1 21.6V22.4C1 22.9523 1.44772 23.4 2 23.4H2.86445C3.41673 23.4 3.86445 23.8477 3.86445 24.4V28C3.86445 28.5523 4.31217 29 4.86445 29H5.7289C6.28118 29 6.7289 28.5523 6.7289 28V24.4C6.7289 23.8477 7.17662 23.4 7.7289 23.4H14.3223C14.8745 23.4 15.3223 22.9523 15.3223 22.4V21.6C15.3223 21.0477 14.8745 20.6 14.3223 20.6H7.7289C7.17662 20.6 6.7289 20.1523 6.7289 19.6V17.4C6.7289 16.8477 7.17662 16.4 7.7289 16.4H17.4706C21.8045 16.4 25.3478 12.9364 25.3478 8.7C25.3478 4.4636 21.8045 1 17.4706 1H4.86445ZM6.7289 4.8C6.7289 4.24772 7.17662 3.8 7.7289 3.8H17.4706C20.2548 3.8 22.4834 5.9784 22.4834 8.7C22.4834 11.4216 20.2548 13.6 17.4706 13.6H7.7289C7.17661 13.6 6.7289 13.1523 6.7289 12.6V4.8Z" fill="#9F9F9F" stroke="#9F9F9F" stroke-width="0.3"/>
</svg>
