<svg width="41" height="36" viewBox="0 0 41 36" fill="none" xmlns="http://www.w3.org/2000/svg">
<g filter="url(#filter0_d_1_3242)">
<path fill-rule="evenodd" clip-rule="evenodd" d="M23.6387 4.23905C20.7355 5.49642 14.9316 8.1019 6.22947 12.0529C4.81643 12.6388 4.07508 13.2118 4.00792 13.7717C3.89348 14.7206 5.03287 15.0939 6.58024 15.5995C6.7917 15.6695 7.01062 15.7395 7.23452 15.8172C8.7595 16.3331 10.8094 16.9372 11.8742 16.9605C12.8419 16.9813 13.9216 16.5665 15.1132 15.7161C23.2431 9.99444 27.44 7.10378 27.7037 7.04156C27.8902 6.99748 28.149 6.94045 28.3231 7.10378C28.4973 7.26451 28.4798 7.57043 28.4624 7.65339C28.348 8.15375 23.885 12.4807 21.5714 14.7206C20.8499 15.418 20.3399 15.9132 20.2355 16.0272C20.0016 16.2787 19.7628 16.5198 19.5339 16.7505C18.1159 18.1712 17.0561 19.2394 19.5936 20.9815C20.8126 21.8189 21.7878 22.5111 22.7605 23.2007C23.8228 23.9551 24.8826 24.707 26.2558 25.6455C26.6041 25.884 26.9374 26.1303 27.2633 26.3714C28.4997 27.2917 29.6118 28.1161 30.985 27.9865C31.7811 27.9087 32.607 27.1284 33.0249 24.7977C34.0126 19.286 35.958 7.35007 36.4083 2.42947C36.4357 2.02093 36.419 1.61047 36.3585 1.2058C36.3223 0.878964 36.1696 0.578233 35.9306 0.363232C35.5749 0.0599076 35.0226 -0.00490501 34.7738 0.000280024C33.6519 0.0210202 31.9303 0.645817 23.6387 4.23905Z" fill="white"/>
</g>
<defs>
<filter id="filter0_d_1_3242" x="0" y="0" width="40.4211" height="36" filterUnits="userSpaceOnUse" color-interpolation-filters="sRGB">
<feFlood flood-opacity="0" result="BackgroundImageFix"/>
<feColorMatrix in="SourceAlpha" type="matrix" values="0 0 0 0 0 0 0 0 0 0 0 0 0 0 0 0 0 0 127 0" result="hardAlpha"/>
<feOffset dy="4"/>
<feGaussianBlur stdDeviation="2"/>
<feComposite in2="hardAlpha" operator="out"/>
<feColorMatrix type="matrix" values="0 0 0 0 0 0 0 0 0 0 0 0 0 0 0 0 0 0 0.25 0"/>
<feBlend mode="normal" in2="BackgroundImageFix" result="effect1_dropShadow_1_3242"/>
<feBlend mode="normal" in="SourceGraphic" in2="effect1_dropShadow_1_3242" result="shape"/>
</filter>
</defs>
</svg>
