<svg width="33" height="28" viewBox="0 0 33 28" fill="none" xmlns="http://www.w3.org/2000/svg">
<path fill-rule="evenodd" clip-rule="evenodd" d="M19.6387 4.23905C16.7355 5.49642 10.9316 8.1019 2.22947 12.0529C0.816432 12.6388 0.0750848 13.2118 0.00791573 13.7717C-0.10652 14.7206 1.03287 15.0939 2.58024 15.5995C2.7917 15.6695 3.01062 15.7395 3.23452 15.8172C4.7595 16.3331 6.8094 16.9372 7.87416 16.9605C8.84189 16.9813 9.92157 16.5665 11.1132 15.7161C19.2431 9.99444 23.44 7.10378 23.7037 7.04156C23.8902 6.99748 24.149 6.94045 24.3231 7.10378C24.4973 7.26451 24.4798 7.57043 24.4624 7.65339C24.348 8.15375 19.885 12.4807 17.5714 14.7206C16.8499 15.418 16.3399 15.9132 16.2355 16.0272C16.0016 16.2787 15.7628 16.5198 15.5339 16.7505C14.1159 18.1712 13.0561 19.2394 15.5936 20.9815C16.8126 21.8189 17.7878 22.5111 18.7605 23.2007C19.8228 23.9551 20.8826 24.707 22.2558 25.6455C22.6041 25.884 22.9374 26.1303 23.2633 26.3714C24.4997 27.2917 25.6118 28.1161 26.985 27.9865C27.7811 27.9087 28.607 27.1284 29.0249 24.7977C30.0126 19.286 31.958 7.35007 32.4083 2.42947C32.4357 2.02093 32.419 1.61047 32.3585 1.2058C32.3223 0.878964 32.1696 0.578233 31.9306 0.363232C31.5749 0.0599076 31.0226 -0.00490501 30.7738 0.000280024C29.6519 0.0210202 27.9303 0.645817 19.6387 4.23905Z" fill="#AFAFAD"/>
</svg>
